# File created by Blade
# Date/Time:  Wed Jan 21 17:47:32 2015
# Frame Rate: 120.000 fps
#------------------------------------------------------
:FULLY-SPECIFIED
:DEGREES
534
root 12.611949 32.094991 -19.535804 -151.719313 39.270653 -217.791758
Spine 33.705154 19.841383 52.249519
Head -10.566155 14.431882 -34.923072
LeftShoulder -19.770846 -16.940623 13.611330
LeftArm -47.041793 6.794921 -18.010774
LeftForeArm -29.578621 -0.000000 -2.594390
LeftHand -12.058194 -0.000000 6.400307
LeftHandThumb1 -26.253704 0.000000 33.147579
RightShoulder 5.589254 5.849886 -30.025851
RightArm 3.191045 31.553244 3.908931
RightForeArm -33.167604 -0.000000 8.927242
RightHand -8.113585 0.000000 -5.745328
RightHandThumb1 -24.326973 -0.000000 -32.862282
LeftUpLeg -31.493139 -12.711845 -13.756241
LeftLeg -5.909922 -0.000000 0.000000
LeftFoot -26.729166 13.989812 -25.196982
LeftToeBase 22.917967 -0.000000 -0.000000
RightUpLeg -91.872267 -39.641666 5.622218
RightLeg -4.852935 -0.000000 0.000000
RightFoot 19.741854 -35.248847 -6.315978
RightToeBase 26.463422 -0.000000 -0.000000
535
root 12.609558 32.092517 -19.548018 -151.501125 39.581555 -217.883516
Spine 34.000604 19.823016 52.182164
Head -10.509351 14.824178 -35.110330
LeftShoulder -19.756201 -17.023077 13.630252
LeftArm -47.450901 6.664201 -17.978009
LeftForeArm -30.126171 -0.000000 -2.603567
LeftHand -12.156627 0.000000 6.897368
LeftHandThumb1 -26.253704 0.000000 33.147579
RightShoulder 5.372223 6.130774 -29.915055
RightArm 3.546690 32.863561 3.616243
RightForeArm -33.519328 0.000000 9.768731
RightHand -8.245630 -0.000000 -6.238934
RightHandThumb1 -24.326973 -0.000000 -32.862282
LeftUpLeg -31.633957 -12.462597 -13.983658
LeftLeg -6.176471 -0.000000 0.000000
LeftFoot -26.680857 14.025565 -25.311520
LeftToeBase 22.990839 -0.000000 -0.000000
RightUpLeg -92.148521 -39.418185 5.380652
RightLeg -4.687563 -0.000000 0.000000
RightFoot 19.690095 -35.360271 -6.144086
RightToeBase 26.565693 -0.000000 -0.000000
536
root 12.614201 32.090333 -19.558302 -151.200126 39.858597 -217.903672
Spine 34.255004 19.792730 52.166499
Head -10.465669 15.246031 -35.365972
LeftShoulder -19.766646 -17.064279 13.587356
LeftArm -47.811890 6.482717 -17.916551
LeftForeArm -30.730769 -0.000000 -2.621514
LeftHand -12.186883 -0.000000 7.322383
LeftHandThumb1 -26.253704 0.000000 33.147579
RightShoulder 5.119905 6.438573 -29.807410
RightArm 4.077582 34.043908 3.423510
RightForeArm -33.967599 -0.000000 10.574739
RightHand -8.370941 -0.000000 -7.027031
RightHandThumb1 -24.326973 -0.000000 -32.862282
LeftUpLeg -31.818320 -12.222266 -14.133141
LeftLeg -6.429016 -0.000000 0.000000
LeftFoot -26.658934 14.042195 -25.455028
LeftToeBase 23.303618 -0.000000 -0.000000
RightUpLeg -92.494802 -39.190416 5.336339
RightLeg -4.584122 -0.000000 0.000000
RightFoot 19.679328 -35.202446 -6.124251
RightToeBase 26.702040 -0.000000 -0.000000
537
root 12.617204 32.084151 -19.569072 -150.944215 40.119892 -217.956611
Spine 34.491936 19.723058 52.108167
Head -10.432584 15.667981 -35.583171
LeftShoulder -19.751865 -17.126226 13.543097
LeftArm -48.194884 6.352655 -17.910652
LeftForeArm -31.310626 -0.000000 -2.625236
LeftHand -12.249156 -0.000000 7.822075
LeftHandThumb1 -26.253704 0.000000 33.147579
RightShoulder 4.884249 6.772637 -29.686371
RightArm 4.682129 34.875192 3.208474
RightForeArm -34.002175 -0.000000 11.347114
RightHand -8.424023 -0.000000 -7.548281
RightHandThumb1 -24.326973 -0.000000 -32.862282
LeftUpLeg -31.976625 -12.042813 -14.276526
LeftLeg -6.677770 -0.000000 0.000000
LeftFoot -26.665498 14.061191 -25.571379
LeftToeBase 23.574833 -0.000000 -0.000000
RightUpLeg -92.881173 -38.978187 5.336121
RightLeg -4.443467 -0.000000 0.000000
RightFoot 19.707588 -35.065502 -6.183711
RightToeBase 26.699718 -0.000000 -0.000000
538
root 12.628465 32.078614 -19.582601 -150.667853 40.351092 -217.898592
Spine 34.758796 19.533765 52.168715
Head -10.364722 16.086027 -35.863677
LeftShoulder -19.724816 -17.224441 13.464051
LeftArm -48.682552 6.240827 -17.914967
LeftForeArm -31.700245 0.000000 -2.552877
LeftHand -12.312916 -0.000000 8.354950
LeftHandThumb1 -26.253704 0.000000 33.147579
RightShoulder 4.659507 6.910895 -29.618879
RightArm 5.515929 35.585163 3.024111
RightForeArm -33.925428 0.000000 11.955337
RightHand -8.359261 -0.000000 -8.128002
RightHandThumb1 -24.326973 -0.000000 -32.862282
LeftUpLeg -32.060543 -11.821408 -14.339894
LeftLeg -6.966050 -0.000000 0.000000
LeftFoot -26.656149 14.067563 -25.701273
LeftToeBase 23.675917 -0.000000 -0.000000
RightUpLeg -93.127881 -38.758612 5.343291
RightLeg -4.357494 -0.000000 0.000000
RightFoot 19.788024 -34.877825 -6.364421
RightToeBase 26.747817 -0.000000 -0.000000
539
root 12.641031 32.073786 -19.591946 -150.337494 40.529894 -217.820153
Spine 34.915198 19.322499 52.224906
Head -10.248254 16.563030 -36.152310
LeftShoulder -19.696651 -17.286079 13.370079
LeftArm -49.142722 6.183043 -18.010370
LeftForeArm -32.173920 -0.000000 -2.543553
LeftHand -12.297545 0.000000 8.817637
LeftHandThumb1 -26.253704 0.000000 33.147579
RightShoulder 4.601061 7.086096 -29.631311
RightArm 6.139574 36.023438 2.825055
RightForeArm -34.084198 -0.000000 12.732314
RightHand -8.502724 -0.000000 -8.356427
RightHandThumb1 -24.326973 -0.000000 -32.862282
LeftUpLeg -32.193981 -11.638238 -14.352842
LeftLeg -7.238374 -0.000000 0.000000
LeftFoot -26.622214 14.031002 -25.836238
LeftToeBase 23.906250 -0.000000 -0.000000
RightUpLeg -93.399428 -38.567451 5.403699
RightLeg -4.306582 -0.000000 0.000000
RightFoot 19.818507 -34.750224 -6.492181
RightToeBase 26.717891 -0.000000 -0.000000
540
root 12.645425 32.065000 -19.596408 -150.055804 40.755852 -217.825416
Spine 35.084173 19.165282 52.156209
Head -10.159482 16.934482 -36.354483
LeftShoulder -19.656315 -17.393293 13.364914
LeftArm -49.571549 6.082202 -18.101785
LeftForeArm -32.516170 -0.000000 -2.502427
LeftHand -12.431382 -0.000000 9.231591
LeftHandThumb1 -26.253704 0.000000 33.147579
RightShoulder 4.569904 7.061180 -29.653574
RightArm 6.769184 36.173660 2.567002
RightForeArm -33.707620 -0.000000 13.243567
RightHand -8.397374 -0.000000 -8.515902
RightHandThumb1 -24.326973 -0.000000 -32.862282
LeftUpLeg -32.350875 -11.434735 -14.451940
LeftLeg -7.489438 -0.000000 0.000000
LeftFoot -26.593836 13.991948 -25.887325
LeftToeBase 24.130137 -0.000000 -0.000000
RightUpLeg -93.621598 -38.377476 5.209062
RightLeg -4.197390 -0.000000 0.000000
RightFoot 19.827158 -34.793597 -6.536331
RightToeBase 26.796125 -0.000000 -0.000000
